<svg width="40" height="40" viewBox="0 0 40 40" fill="none" xmlns="http://www.w3.org/2000/svg">
<path d="M37.5 20C37.5 10.334 29.666 2.5 20 2.5C10.334 2.5 2.5 10.334 2.5 20C2.5 28.7364 8.89844 35.9756 17.2656 37.2881V25.0586H12.8222V20H17.2656V16.1445C17.2656 11.7592 19.877 9.33594 23.876 9.33594C25.79 9.33594 27.793 9.67773 27.793 9.67773V13.9844H25.585C23.4111 13.9844 22.7344 15.3345 22.7344 16.7188V20H27.5879L26.812 25.0586H22.7344V37.2881C31.1016 35.9756 37.5 28.7364 37.5 20Z" fill="#1877F2"/>
<path d="M26.812 25.0586L27.5878 20H22.7344V16.7188C22.7344 15.3345 23.4111 13.9844 25.585 13.9844H27.793V9.67773C27.793 9.67773 25.79 9.33594 23.8759 9.33594C19.877 9.33594 17.2656 11.7592 17.2656 16.1445V20H12.8222V25.0586H17.2656V37.2881C18.1577 37.4283 19.0703 37.5 20 37.5C20.9297 37.5 21.8423 37.4283 22.7344 37.2881V25.0586H26.812Z" fill="white"/>
</svg>
