<svg width="40" height="40" viewBox="0 0 40 40" fill="none" xmlns="http://www.w3.org/2000/svg">
<path d="M37.5 20C37.5 10.335 29.665 2.5 20 2.5C10.335 2.5 2.5 10.335 2.5 20C2.5 29.665 10.335 37.5 20 37.5C29.665 37.5 37.5 29.665 37.5 20Z" fill="#1275B1"/>
<path d="M15.7732 12.1152C15.7732 13.2834 14.7606 14.2304 13.5116 14.2304C12.2626 14.2304 11.25 13.2834 11.25 12.1152C11.25 10.947 12.2626 10 13.5116 10C14.7606 10 15.7732 10.947 15.7732 12.1152Z" fill="white"/>
<path d="M11.5586 15.7852H15.4246V27.5H11.5586V15.7852Z" fill="white"/>
<path d="M21.6492 15.7853H17.7832V27.5002H21.6492C21.6492 27.5002 21.6492 23.8122 21.6492 21.5063C21.6492 20.1222 22.1218 18.732 24.0075 18.732C26.1385 18.732 26.1257 20.5433 26.1157 21.9465C26.1027 23.7807 26.1337 25.6525 26.1337 27.5002H29.9997V21.3173C29.967 17.3694 28.9382 15.5503 25.5538 15.5503C23.544 15.5503 22.2981 16.4628 21.6492 17.2883V15.7853Z" fill="white"/>
</svg>
