<svg width="32" height="32" viewBox="0 0 32 32" fill="none" xmlns="http://www.w3.org/2000/svg">
<rect width="32" height="32" rx="16" fill="#FCE6E8" fill-opacity="0.57"/>
<path d="M16.0007 23.9168C13.901 23.9168 11.8874 23.0828 10.4027 21.5981C8.91806 20.1134 8.08398 18.0998 8.08398 16.0002C8.08398 13.9005 8.91806 11.8869 10.4027 10.4022C11.8874 8.91757 13.901 8.0835 16.0007 8.0835C18.1003 8.0835 20.1139 8.83416 21.5986 10.1704C23.0832 11.5066 23.9173 13.3188 23.9173 15.2085C23.9173 16.2583 23.5003 17.2651 22.7579 18.0075C22.0156 18.7498 21.0088 19.1668 19.959 19.1668H18.1777C17.9204 19.1668 17.6682 19.2385 17.4494 19.3737C17.2305 19.509 17.0536 19.7025 16.9386 19.9327C16.8235 20.1628 16.7748 20.4204 16.7979 20.6767C16.821 20.9329 16.915 21.1777 17.0694 21.3835L17.3069 21.7002C17.4613 21.906 17.5553 22.1507 17.5784 22.407C17.6015 22.6632 17.5528 22.9209 17.4377 23.151C17.3227 23.3811 17.1458 23.5747 16.9269 23.7099C16.7081 23.8452 16.4559 23.9168 16.1986 23.9168H16.0007Z" stroke="#E50914" stroke-width="1.93976" stroke-linecap="round" stroke-linejoin="round"/>
<path d="M17.1869 12.0417C17.4055 12.0417 17.5828 11.8645 17.5828 11.6459C17.5828 11.4272 17.4055 11.25 17.1869 11.25C16.9683 11.25 16.791 11.4272 16.791 11.6459C16.791 11.8645 16.9683 12.0417 17.1869 12.0417Z" fill="#E50914" stroke="#E50914" stroke-width="1.93976" stroke-linecap="round" stroke-linejoin="round"/>
<path d="M20.3549 15.2083C20.5735 15.2083 20.7507 15.031 20.7507 14.8124C20.7507 14.5937 20.5735 14.4165 20.3549 14.4165C20.1362 14.4165 19.959 14.5937 19.959 14.8124C19.959 15.031 20.1362 15.2083 20.3549 15.2083Z" fill="#E50914" stroke="#E50914" stroke-width="1.93976" stroke-linecap="round" stroke-linejoin="round"/>
<path d="M11.6459 16.7917C11.8645 16.7917 12.0417 16.6145 12.0417 16.3959C12.0417 16.1772 11.8645 16 11.6459 16C11.4272 16 11.25 16.1772 11.25 16.3959C11.25 16.6145 11.4272 16.7917 11.6459 16.7917Z" fill="#E50914" stroke="#E50914" stroke-width="1.93976" stroke-linecap="round" stroke-linejoin="round"/>
<path d="M13.2299 12.8333C13.4485 12.8333 13.6257 12.656 13.6257 12.4374C13.6257 12.2187 13.4485 12.0415 13.2299 12.0415C13.0112 12.0415 12.834 12.2187 12.834 12.4374C12.834 12.656 13.0112 12.8333 13.2299 12.8333Z" fill="#E50914" stroke="#E50914" stroke-width="1.93976" stroke-linecap="round" stroke-linejoin="round"/>
</svg>
