<svg width="19" height="17" viewBox="0 0 19 17" fill="none" xmlns="http://www.w3.org/2000/svg">
<path d="M0.969727 5.56664C0.969744 4.63931 1.25105 3.7338 1.7765 2.9697C2.30195 2.2056 3.04682 1.61886 3.91273 1.28698C4.77864 0.955094 5.72486 0.89368 6.6264 1.11085C7.52795 1.32801 8.34241 1.81354 8.96223 2.50331C9.00588 2.54999 9.05866 2.5872 9.11729 2.61264C9.17592 2.63808 9.23915 2.65121 9.30306 2.65121C9.36697 2.65121 9.4302 2.63808 9.48883 2.61264C9.54746 2.5872 9.60024 2.54999 9.64389 2.50331C10.2618 1.80906 11.0764 1.31945 11.9794 1.09964C12.8824 0.879839 13.831 0.940265 14.6988 1.27288C15.5666 1.60549 16.3125 2.19452 16.8373 2.96156C17.3621 3.7286 17.6408 4.63728 17.6364 5.56664C17.6364 7.47498 16.3864 8.89998 15.1364 10.15L10.5597 14.5775C10.4044 14.7558 10.213 14.8991 9.9981 14.9977C9.7832 15.0964 9.54976 15.1482 9.3133 15.1497C9.07684 15.1512 8.84277 15.1023 8.62663 15.0064C8.4105 14.9105 8.21725 14.7697 8.05973 14.5933L3.46973 10.15C2.21973 8.89998 0.969727 7.48331 0.969727 5.56664Z" stroke="white" stroke-width="1.93976" stroke-linecap="round" stroke-linejoin="round"/>
</svg>
