<svg width="20" height="20" viewBox="0 0 20 20" fill="none" xmlns="http://www.w3.org/2000/svg">
<path d="M13.3327 17.4995V15.8328C13.3327 14.9488 12.9815 14.1009 12.3564 13.4758C11.7313 12.8507 10.8834 12.4995 9.99935 12.4995H4.99935C4.11529 12.4995 3.26745 12.8507 2.64233 13.4758C2.01721 14.1009 1.66602 14.9488 1.66602 15.8328V17.4995" stroke="white" stroke-width="1.93976" stroke-linecap="round" stroke-linejoin="round"/>
<path d="M13.334 2.60645C14.0489 2.79177 14.6819 3.20923 15.1339 3.79328C15.5859 4.37734 15.8311 5.09494 15.8311 5.83344C15.8311 6.57194 15.5859 7.28954 15.1339 7.87359C14.6819 8.45765 14.0489 8.87511 13.334 9.06043" stroke="white" stroke-width="1.93976" stroke-linecap="round" stroke-linejoin="round"/>
<path d="M18.3342 17.5006V15.8337C18.3337 15.0951 18.0878 14.3776 17.6353 13.7938C17.1828 13.21 16.5492 12.7931 15.834 12.6084" stroke="white" stroke-width="1.93976" stroke-linecap="round" stroke-linejoin="round"/>
<path d="M7.49969 9.16686C9.34082 9.16686 10.8334 7.67432 10.8334 5.83318C10.8334 3.99205 9.34082 2.49951 7.49969 2.49951C5.65855 2.49951 4.16602 3.99205 4.16602 5.83318C4.16602 7.67432 5.65855 9.16686 7.49969 9.16686Z" stroke="white" stroke-width="1.93976" stroke-linecap="round" stroke-linejoin="round"/>
</svg>
