<svg width="1440" height="780" viewBox="0 0 1440 780" fill="none" xmlns="http://www.w3.org/2000/svg">
<g clip-path="url(#clip0_499_1457)">
<rect width="1440" height="780" fill="url(#paint0_linear_499_1457)" fill-opacity="0.9"/>
<g opacity="0.1">
<mask id="path-1-inside-1_499_1457" fill="white">
<path d="M42.2598 219.748C42.2598 145.063 102.803 84.5195 177.488 84.5195C252.172 84.5195 312.716 145.063 312.716 219.748C312.716 294.432 252.172 354.976 177.488 354.976C102.803 354.976 42.2598 294.432 42.2598 219.748Z"/>
</mask>
<path d="M177.488 354.976V353.055C103.864 353.055 44.1807 293.371 44.1807 219.748H42.2598H40.3389C40.3389 295.493 101.743 356.897 177.488 356.897V354.976ZM312.716 219.748H310.795C310.795 293.371 251.111 353.055 177.488 353.055V354.976V356.897C253.233 356.897 314.637 295.493 314.637 219.748H312.716ZM177.488 84.5195V86.4404C251.111 86.4404 310.795 146.124 310.795 219.748H312.716H314.637C314.637 144.002 253.233 82.5986 177.488 82.5986V84.5195ZM177.488 84.5195V82.5986C101.743 82.5986 40.3389 144.002 40.3389 219.748H42.2598H44.1807C44.1807 146.124 103.864 86.4404 177.488 86.4404V84.5195Z" fill="white" mask="url(#path-1-inside-1_499_1457)"/>
<mask id="path-3-inside-2_499_1457" fill="white">
<path d="M865 326H1439V652H865V326Z"/>
</mask>
<path d="M865 326V324.079H863.079V326H865ZM1439 326H1440.92V324.079H1439V326ZM1439 652V653.921H1440.92V652H1439ZM865 652H863.079V653.921H865V652ZM865 326V327.921H1439V326V324.079H865V326ZM1439 326H1437.08V652H1439H1440.92V326H1439ZM1439 652V650.079H865V652V653.921H1439V652ZM865 652H866.921V326H865H863.079V652H865Z" fill="white" mask="url(#path-3-inside-2_499_1457)"/>
<mask id="path-5-inside-3_499_1457" fill="white">
<path d="M479.894 348.553H682.728V551.387H479.894V348.553Z"/>
</mask>
<path d="M479.894 348.553V346.632H477.973V348.553H479.894ZM682.728 348.553H684.649V346.632H682.728V348.553ZM682.728 551.387V553.308H684.649V551.387H682.728ZM479.894 551.387H477.973V553.308H479.894V551.387ZM479.894 348.553V350.474H682.728V348.553V346.632H479.894V348.553ZM682.728 348.553H680.807V551.387H682.728H684.649V348.553H682.728ZM682.728 551.387V549.466H479.894V551.387V553.308H682.728V551.387ZM479.894 551.387H481.814V348.553H479.894H477.973V551.387H479.894Z" fill="white" mask="url(#path-5-inside-3_499_1457)"/>
</g>
<g opacity="0.2">
<rect width="1440" height="778" transform="translate(0 2)" fill="white"/>
</g>
</g>
<defs>
<linearGradient id="paint0_linear_499_1457" x1="720" y1="0" x2="720" y2="780" gradientUnits="userSpaceOnUse">
<stop stop-color="#E53935"/>
<stop offset="0.5" stop-color="#C62828"/>
<stop offset="1" stop-color="#1E1E1E"/>
</linearGradient>
<clipPath id="clip0_499_1457">
<rect width="1440" height="780" fill="white"/>
</clipPath>
</defs>
</svg>
