<svg width="115" height="27" viewBox="0 0 115 27" fill="none" xmlns="http://www.w3.org/2000/svg">
<path d="M56.6771 2.8921V4.33079H65.2075V6.93025H56.6771V8.3673H65.2075V11.2512H51.8801L46.01 4.37166V11.2349H41.748V0H47.6117L52.4086 5.95259V0.0179837H65.2075V2.8921H56.6771Z" fill="#E50914"/>
<path d="M77.3053 0.0180664H82.6307L76.8979 5.63551L82.6307 11.2529H77.3053L74.2394 7.96848L71.1734 11.2529H65.8398L71.5726 5.63551L65.8398 0.0180664H71.1734L74.2394 3.29436L77.3053 0.0180664Z" fill="#E50914"/>
<path d="M93.616 0H97.8845V6.03433C97.9008 10.2801 94.5175 11.5014 90.4208 11.5095C86.3225 11.5014 82.9407 10.2801 82.9571 6.03433V0H87.2174V5.75967C87.201 7.60708 88.6735 7.92425 90.4208 7.95041C92.1615 7.92589 93.6405 7.60708 93.616 5.75967V0Z" fill="#E50914"/>
<path d="M109.674 0.0180664H115L109.267 5.63551L115 11.2529H109.674L106.608 7.96848L103.543 11.2529H98.209L103.942 5.63551L98.209 0.0180664H103.543L106.608 3.29436L109.674 0.0180664Z" fill="#E50914"/>
<path d="M61.4658 15.5068H56.4006L52.4053 23.163H46.01V15.4905H41.748V26.7237H50.5484L50.5386 26.7417H55.3355L56.1977 24.8191H61.6703L62.5325 26.7417H67.3294L61.4658 15.5068ZM57.4329 22.0774L58.9381 18.7586L60.4334 22.0774H57.4329Z" fill="#B81D24"/>
<path d="M82.315 23.7236C82.3395 25.6871 80.7297 26.7416 78.8515 26.7416H67.6543V15.5083H78.0465C79.9411 15.5002 81.5428 16.5612 81.5182 18.5182C81.5182 19.5972 81.0307 20.4244 80.2503 20.9345C81.4855 21.3432 82.315 22.3143 82.315 23.7269V23.7236ZM71.9162 18.1732V19.6855H76.8522C77.2187 19.6855 77.5197 19.3013 77.5197 18.9252C77.5197 18.5492 77.2187 18.1732 76.8522 18.1732H71.9162ZM77.6473 24.0653C78.0138 24.0653 78.3148 23.6893 78.3148 23.3133C78.3148 22.9372 78.0138 22.5612 77.6473 22.5612H71.9146V24.0653H77.6473Z" fill="#B81D24"/>
<path d="M90.6078 19.8361C93.6574 19.9947 97.9422 20.2121 97.9341 23.029C97.9341 26.2383 94.356 27.0001 90.5178 27.0001C86.6878 26.9919 83.509 26.5146 83.1016 23.029H87.5664C88.0539 23.8988 89.1844 24.1244 90.5178 24.1244C91.8512 24.1244 93.4693 23.8988 93.4693 23.029C93.4693 22.5353 92.1441 22.4601 90.4278 22.3767C87.3782 22.2181 83.0934 22.0007 83.1016 19.1919C83.1016 15.9827 86.6796 15.2126 90.5178 15.2126C94.3478 15.2372 97.5267 15.6802 97.9341 19.1919H93.4693C92.9817 18.3058 91.8512 18.0966 90.5178 18.0966C89.1844 18.0966 87.5664 18.2977 87.5664 19.1919C87.5664 19.6857 88.8916 19.7527 90.6078 19.8361Z" fill="#B81D24"/>
<path d="M34.7442 26.7237H26.0583L22.1367 21.9302L26.4804 16.6201L34.7442 26.7237Z" fill="#B81D24"/>
<path d="M39.2277 0L26.0591 16.1035L21.7154 21.4136L17.2342 15.9319L8.40769 26.7237H0L17.3733 5.48174L21.5763 10.6218L30.2638 0H39.2277Z" fill="#FF0000"/>
</svg>
