<svg width="1938" height="648" viewBox="0 0 1938 648" fill="none" xmlns="http://www.w3.org/2000/svg">
<g opacity="0.6" clip-path="url(#clip0_660_1169)">
<path d="M645.889 2.20502V647.982" stroke="white" stroke-width="0.25" stroke-linecap="round" stroke-linejoin="round"/>
<path d="M592.072 2.20502V647.982" stroke="white" stroke-width="0.25" stroke-linecap="round" stroke-linejoin="round"/>
<path d="M538.26 2.20502V647.982" stroke="white" stroke-width="0.25" stroke-linecap="round" stroke-linejoin="round"/>
<path d="M484.443 2.20502V647.982" stroke="white" stroke-width="0.25" stroke-linecap="round" stroke-linejoin="round"/>
<path d="M430.627 2.20502V647.982" stroke="white" stroke-width="0.25" stroke-linecap="round" stroke-linejoin="round"/>
<path d="M376.814 2.20502V647.982" stroke="white" stroke-width="0.25" stroke-linecap="round" stroke-linejoin="round"/>
<path d="M322.998 2.20502V647.982" stroke="white" stroke-width="0.25" stroke-linecap="round" stroke-linejoin="round"/>
<path d="M269.186 2.20502V647.982" stroke="white" stroke-width="0.25" stroke-linecap="round" stroke-linejoin="round"/>
<path d="M215.369 2.20502V647.982" stroke="white" stroke-width="0.25" stroke-linecap="round" stroke-linejoin="round"/>
<path d="M161.557 2.20502V647.982" stroke="white" stroke-width="0.25" stroke-linecap="round" stroke-linejoin="round"/>
<path d="M107.74 2.20502V647.982" stroke="white" stroke-width="0.25" stroke-linecap="round" stroke-linejoin="round"/>
<path d="M53.9258 2.20502V647.982" stroke="white" stroke-width="0.25" stroke-linecap="round" stroke-linejoin="round"/>
<path d="M0.111328 2.20502V647.982" stroke="white" stroke-width="0.25" stroke-linecap="round" stroke-linejoin="round"/>
<path d="M0.111328 2.20502H645.889" stroke="white" stroke-width="0.25" stroke-linecap="round" stroke-linejoin="round"/>
<path d="M0.111328 56.0205H645.889" stroke="white" stroke-width="0.25" stroke-linecap="round" stroke-linejoin="round"/>
<path d="M0.111328 109.834H645.889" stroke="white" stroke-width="0.25" stroke-linecap="round" stroke-linejoin="round"/>
<path d="M0.111328 163.65H645.889" stroke="white" stroke-width="0.25" stroke-linecap="round" stroke-linejoin="round"/>
<path d="M0.111328 217.463H645.889" stroke="white" stroke-width="0.25" stroke-linecap="round" stroke-linejoin="round"/>
<path d="M0.111328 271.279H645.889" stroke="white" stroke-width="0.25" stroke-linecap="round" stroke-linejoin="round"/>
<path d="M0.111328 325.092H645.889" stroke="white" stroke-width="0.25" stroke-linecap="round" stroke-linejoin="round"/>
<path d="M0.111328 378.908H645.889" stroke="white" stroke-width="0.25" stroke-linecap="round" stroke-linejoin="round"/>
<path d="M0.111328 432.722H645.889" stroke="white" stroke-width="0.25" stroke-linecap="round" stroke-linejoin="round"/>
<path d="M0.111328 486.537H645.889" stroke="white" stroke-width="0.25" stroke-linecap="round" stroke-linejoin="round"/>
<path d="M0.111328 540.354H645.889" stroke="white" stroke-width="0.25" stroke-linecap="round" stroke-linejoin="round"/>
<path d="M0.111328 594.166H645.889" stroke="white" stroke-width="0.25" stroke-linecap="round" stroke-linejoin="round"/>
<mask id="mask0_660_1169" style="mask-type:luminance" maskUnits="userSpaceOnUse" x="0" y="647" width="646" height="2">
<path fill-rule="evenodd" clip-rule="evenodd" d="M0.111328 647.482H645.889V648.108H0.111328V647.482Z" fill="white"/>
</mask>
<g mask="url(#mask0_660_1169)">
<path d="M0.111328 647.982H645.889" stroke="white" stroke-width="0.25" stroke-linecap="round" stroke-linejoin="round"/>
</g>
</g>
<g opacity="0.6" clip-path="url(#clip1_660_1169)">
<path d="M1291.89 1.20502V646.982" stroke="white" stroke-width="0.25" stroke-linecap="round" stroke-linejoin="round"/>
<path d="M1238.07 1.20502V646.982" stroke="white" stroke-width="0.25" stroke-linecap="round" stroke-linejoin="round"/>
<path d="M1184.26 1.20502V646.982" stroke="white" stroke-width="0.25" stroke-linecap="round" stroke-linejoin="round"/>
<path d="M1130.44 1.20502V646.982" stroke="white" stroke-width="0.25" stroke-linecap="round" stroke-linejoin="round"/>
<path d="M1076.63 1.20502V646.982" stroke="white" stroke-width="0.25" stroke-linecap="round" stroke-linejoin="round"/>
<path d="M1022.81 1.20502V646.982" stroke="white" stroke-width="0.25" stroke-linecap="round" stroke-linejoin="round"/>
<path d="M968.998 1.20502V646.982" stroke="white" stroke-width="0.25" stroke-linecap="round" stroke-linejoin="round"/>
<path d="M915.186 1.20502V646.982" stroke="white" stroke-width="0.25" stroke-linecap="round" stroke-linejoin="round"/>
<path d="M861.369 1.20502V646.982" stroke="white" stroke-width="0.25" stroke-linecap="round" stroke-linejoin="round"/>
<path d="M807.557 1.20502V646.982" stroke="white" stroke-width="0.25" stroke-linecap="round" stroke-linejoin="round"/>
<path d="M753.74 1.20502V646.982" stroke="white" stroke-width="0.25" stroke-linecap="round" stroke-linejoin="round"/>
<path d="M699.926 1.20502V646.982" stroke="white" stroke-width="0.25" stroke-linecap="round" stroke-linejoin="round"/>
<path d="M646.111 1.20502V646.982" stroke="white" stroke-width="0.25" stroke-linecap="round" stroke-linejoin="round"/>
<path d="M646.111 1.20502H1291.89" stroke="white" stroke-width="0.25" stroke-linecap="round" stroke-linejoin="round"/>
<path d="M646.111 55.0205H1291.89" stroke="white" stroke-width="0.25" stroke-linecap="round" stroke-linejoin="round"/>
<path d="M646.111 108.834H1291.89" stroke="white" stroke-width="0.25" stroke-linecap="round" stroke-linejoin="round"/>
<path d="M646.111 162.65H1291.89" stroke="white" stroke-width="0.25" stroke-linecap="round" stroke-linejoin="round"/>
<path d="M646.111 216.463H1291.89" stroke="white" stroke-width="0.25" stroke-linecap="round" stroke-linejoin="round"/>
<path d="M646.111 270.279H1291.89" stroke="white" stroke-width="0.25" stroke-linecap="round" stroke-linejoin="round"/>
<path d="M646.111 324.092H1291.89" stroke="white" stroke-width="0.25" stroke-linecap="round" stroke-linejoin="round"/>
<path d="M646.111 377.908H1291.89" stroke="white" stroke-width="0.25" stroke-linecap="round" stroke-linejoin="round"/>
<path d="M646.111 431.722H1291.89" stroke="white" stroke-width="0.25" stroke-linecap="round" stroke-linejoin="round"/>
<path d="M646.111 485.537H1291.89" stroke="white" stroke-width="0.25" stroke-linecap="round" stroke-linejoin="round"/>
<path d="M646.111 539.354H1291.89" stroke="white" stroke-width="0.25" stroke-linecap="round" stroke-linejoin="round"/>
<path d="M646.111 593.166H1291.89" stroke="white" stroke-width="0.25" stroke-linecap="round" stroke-linejoin="round"/>
<mask id="mask1_660_1169" style="mask-type:luminance" maskUnits="userSpaceOnUse" x="646" y="646" width="646" height="2">
<path fill-rule="evenodd" clip-rule="evenodd" d="M646.111 646.482H1291.89V647.108H646.111V646.482Z" fill="white"/>
</mask>
<g mask="url(#mask1_660_1169)">
<path d="M646.111 646.982H1291.89" stroke="white" stroke-width="0.25" stroke-linecap="round" stroke-linejoin="round"/>
</g>
</g>
<g opacity="0.6" clip-path="url(#clip2_660_1169)">
<path d="M1937.89 0.205017V645.982" stroke="white" stroke-width="0.25" stroke-linecap="round" stroke-linejoin="round"/>
<path d="M1884.07 0.205017V645.982" stroke="white" stroke-width="0.25" stroke-linecap="round" stroke-linejoin="round"/>
<path d="M1830.26 0.205017V645.982" stroke="white" stroke-width="0.25" stroke-linecap="round" stroke-linejoin="round"/>
<path d="M1776.44 0.205017V645.982" stroke="white" stroke-width="0.25" stroke-linecap="round" stroke-linejoin="round"/>
<path d="M1722.63 0.205017V645.982" stroke="white" stroke-width="0.25" stroke-linecap="round" stroke-linejoin="round"/>
<path d="M1668.81 0.205017V645.982" stroke="white" stroke-width="0.25" stroke-linecap="round" stroke-linejoin="round"/>
<path d="M1615 0.205017V645.982" stroke="white" stroke-width="0.25" stroke-linecap="round" stroke-linejoin="round"/>
<path d="M1561.19 0.205017V645.982" stroke="white" stroke-width="0.25" stroke-linecap="round" stroke-linejoin="round"/>
<path d="M1507.37 0.205017V645.982" stroke="white" stroke-width="0.25" stroke-linecap="round" stroke-linejoin="round"/>
<path d="M1453.56 0.205017V645.982" stroke="white" stroke-width="0.25" stroke-linecap="round" stroke-linejoin="round"/>
<path d="M1399.74 0.205017V645.982" stroke="white" stroke-width="0.25" stroke-linecap="round" stroke-linejoin="round"/>
<path d="M1345.93 0.205017V645.982" stroke="white" stroke-width="0.25" stroke-linecap="round" stroke-linejoin="round"/>
<path d="M1292.11 0.205017V645.982" stroke="white" stroke-width="0.25" stroke-linecap="round" stroke-linejoin="round"/>
<path d="M1292.11 0.205017H1937.89" stroke="white" stroke-width="0.25" stroke-linecap="round" stroke-linejoin="round"/>
<path d="M1292.11 54.0205H1937.89" stroke="white" stroke-width="0.25" stroke-linecap="round" stroke-linejoin="round"/>
<path d="M1292.11 107.834H1937.89" stroke="white" stroke-width="0.25" stroke-linecap="round" stroke-linejoin="round"/>
<path d="M1292.11 161.65H1937.89" stroke="white" stroke-width="0.25" stroke-linecap="round" stroke-linejoin="round"/>
<path d="M1292.11 215.463H1937.89" stroke="white" stroke-width="0.25" stroke-linecap="round" stroke-linejoin="round"/>
<path d="M1292.11 269.279H1937.89" stroke="white" stroke-width="0.25" stroke-linecap="round" stroke-linejoin="round"/>
<path d="M1292.11 323.092H1937.89" stroke="white" stroke-width="0.25" stroke-linecap="round" stroke-linejoin="round"/>
<path d="M1292.11 376.908H1937.89" stroke="white" stroke-width="0.25" stroke-linecap="round" stroke-linejoin="round"/>
<path d="M1292.11 430.722H1937.89" stroke="white" stroke-width="0.25" stroke-linecap="round" stroke-linejoin="round"/>
<path d="M1292.11 484.537H1937.89" stroke="white" stroke-width="0.25" stroke-linecap="round" stroke-linejoin="round"/>
<path d="M1292.11 538.354H1937.89" stroke="white" stroke-width="0.25" stroke-linecap="round" stroke-linejoin="round"/>
<path d="M1292.11 592.166H1937.89" stroke="white" stroke-width="0.25" stroke-linecap="round" stroke-linejoin="round"/>
<mask id="mask2_660_1169" style="mask-type:luminance" maskUnits="userSpaceOnUse" x="1292" y="645" width="646" height="2">
<path fill-rule="evenodd" clip-rule="evenodd" d="M1292.11 645.482H1937.89V646.108H1292.11V645.482Z" fill="white"/>
</mask>
<g mask="url(#mask2_660_1169)">
<path d="M1292.11 645.982H1937.89" stroke="white" stroke-width="0.25" stroke-linecap="round" stroke-linejoin="round"/>
</g>
</g>
<defs>
<clipPath id="clip0_660_1169">
<rect width="646" height="646" fill="white" transform="translate(0 2)"/>
</clipPath>
<clipPath id="clip1_660_1169">
<rect width="646" height="646" fill="white" transform="translate(646 1)"/>
</clipPath>
<clipPath id="clip2_660_1169">
<rect width="646" height="646" fill="white" transform="translate(1292)"/>
</clipPath>
</defs>
</svg>
