<svg width="44" height="44" viewBox="0 0 44 44" fill="none" xmlns="http://www.w3.org/2000/svg">
<rect width="44" height="44" rx="22" fill="#E50914"/>
<path d="M22 12C25.866 12 29 15.134 29 19C29 19.1135 28.9973 19.2264 28.992 19.3386C31.3265 20.16 33 22.3846 33 25C33 28.3137 30.3137 31 27 31H17C13.6863 31 11 28.3137 11 25C11 22.3846 12.6735 20.16 15.008 19.3386C15.0027 19.2264 15 19.1135 15 19C15 15.134 18.134 12 22 12ZM22 14C19.2386 14 17 16.2386 17 19C17 19.0815 17.0019 19.1626 17.0058 19.2434L17.0766 20.7309L15.6718 21.2252C14.0844 21.7837 13 23.2889 13 25C13 27.2091 14.7909 29 17 29H27C29.2091 29 31 27.2091 31 25C31 22.79 29.21 21 27 21C25.233 21 23.7337 22.1457 23.2042 23.7347L21.3064 23.1021C22.1005 20.7185 24.35 19 27 19C27 16.2386 24.7614 14 22 14Z" fill="white"/>
</svg>
