<svg width="44" height="44" viewBox="0 0 44 44" fill="none" xmlns="http://www.w3.org/2000/svg">
<rect width="44" height="44" rx="22" fill="#E50914"/>
<path d="M15 22.5C15 22.8134 15.461 23.3584 16.5305 23.8931C17.9141 24.5849 19.8768 25 22 25C24.1232 25 26.0859 24.5849 27.4695 23.8931C28.539 23.3584 29 22.8134 29 22.5V20.3287C27.35 21.3482 24.8273 22 22 22C19.1727 22 16.65 21.3482 15 20.3287V22.5ZM29 25.3287C27.35 26.3482 24.8273 27 22 27C19.1727 27 16.65 26.3482 15 25.3287V27.5C15 27.8134 15.461 28.3584 16.5305 28.8931C17.9141 29.5849 19.8768 30 22 30C24.1232 30 26.0859 29.5849 27.4695 28.8931C28.539 28.3584 29 27.8134 29 27.5V25.3287ZM13 27.5V17.5C13 15.0147 17.0294 13 22 13C26.9706 13 31 15.0147 31 17.5V27.5C31 29.9853 26.9706 32 22 32C17.0294 32 13 29.9853 13 27.5ZM22 20C24.1232 20 26.0859 19.5849 27.4695 18.8931C28.539 18.3584 29 17.8134 29 17.5C29 17.1866 28.539 16.6416 27.4695 16.1069C26.0859 15.4151 24.1232 15 22 15C19.8768 15 17.9141 15.4151 16.5305 16.1069C15.461 16.6416 15 17.1866 15 17.5C15 17.8134 15.461 18.3584 16.5305 18.8931C17.9141 19.5849 19.8768 20 22 20Z" fill="white"/>
</svg>
