<svg width="44" height="44" viewBox="0 0 44 44" fill="none" xmlns="http://www.w3.org/2000/svg">
<rect width="44" height="44" rx="22" fill="#E50914"/>
<path d="M15 16C15 13.7909 16.7909 12 19 12H25C27.2091 12 29 13.7909 29 16C29 17.1947 28.4762 18.2671 27.6458 19C28.4762 19.733 29 20.8053 29 22C29 24.2091 27.2091 26 25 26C24.2714 26 23.5883 25.8052 23 25.4649V28C23 30.2091 21.2091 32 19 32C16.7909 32 15 30.2091 15 28C15 26.8053 15.5238 25.7329 16.3542 25C15.5238 24.2671 15 23.1947 15 22C15 20.8053 15.5238 19.733 16.3542 19C15.5238 18.2671 15 17.1947 15 16ZM21 20H19C17.8954 20 17 20.8954 17 22C17 23.1046 17.8954 24 19 24H21V20ZM23 22C23 23.1046 23.8954 24 25 24C26.1046 24 27 23.1046 27 22C27 20.8954 26.1046 20 25 20C23.8954 20 23 20.8954 23 22ZM25 18C26.1046 18 27 17.1046 27 16C27 14.8954 26.1046 14 25 14H23V18H25ZM19 14C17.8954 14 17 14.8954 17 16C17 17.1046 17.8954 18 19 18H21V14H19ZM21 26H19C17.8954 26 17 26.8954 17 28C17 29.1046 17.8954 30 19 30C20.1046 30 21 29.1046 21 28V26Z" fill="white"/>
</svg>
