<svg width="44" height="44" viewBox="0 0 44 44" fill="none" xmlns="http://www.w3.org/2000/svg">
<rect width="44" height="44" rx="22" fill="#E50914"/>
<path d="M16 18V17C16 13.6863 18.6863 11 22 11C25.3137 11 28 13.6863 28 17V18H30C30.5523 18 31 18.4477 31 19V31C31 31.5523 30.5523 32 30 32H14C13.4477 32 13 31.5523 13 31V19C13 18.4477 13.4477 18 14 18H16ZM29 20H15V30H29V20ZM21 25.7324C20.4022 25.3866 20 24.7403 20 24C20 22.8954 20.8954 22 22 22C23.1046 22 24 22.8954 24 24C24 24.7403 23.5978 25.3866 23 25.7324V28H21V25.7324ZM18 18H26V17C26 14.7909 24.2091 13 22 13C19.7909 13 18 14.7909 18 17V18Z" fill="white"/>
</svg>
