<svg width="1440" height="423" viewBox="0 0 1440 423" fill="none" xmlns="http://www.w3.org/2000/svg">
<rect width="1439.71" height="422.537" fill="url(#paint0_linear_567_3306)" fill-opacity="0.7"/>
<g opacity="0.1">
<mask id="path-1-inside-1_567_3306" fill="white">
<path d="M1084.74 177.488C1084.74 102.803 1145.28 42.2596 1219.96 42.2596C1294.65 42.2596 1355.19 102.803 1355.19 177.488C1355.19 252.172 1294.65 312.716 1219.96 312.716C1145.28 312.716 1084.74 252.172 1084.74 177.488Z"/>
</mask>
<path d="M1219.96 312.716V310.795C1146.34 310.795 1086.66 251.111 1086.66 177.488H1084.74H1082.82C1082.82 253.233 1144.22 314.637 1219.96 314.637V312.716ZM1355.19 177.488H1353.27C1353.27 251.111 1293.59 310.795 1219.96 310.795V312.716V314.637C1295.71 314.637 1357.11 253.233 1357.11 177.488H1355.19ZM1219.96 42.2596V44.1805C1293.59 44.1805 1353.27 103.864 1353.27 177.488H1355.19H1357.11C1357.11 101.742 1295.71 40.3387 1219.96 40.3387V42.2596ZM1219.96 42.2596V40.3387C1144.22 40.3387 1082.82 101.742 1082.82 177.488H1084.74H1086.66C1086.66 103.864 1146.34 44.1805 1219.96 44.1805V42.2596Z" fill="white" mask="url(#path-1-inside-1_567_3306)"/>
<mask id="path-3-inside-2_567_3306" fill="white">
<path d="M-41.7598 -109.427H531.964V464.297H-41.7598V-109.427Z"/>
</mask>
<path d="M-41.7598 -109.427V-111.348H-43.6807V-109.427H-41.7598ZM531.964 -109.427H533.885V-111.348H531.964V-109.427ZM531.964 464.297V466.218H533.885V464.297H531.964ZM-41.7598 464.297H-43.6807V466.218H-41.7598V464.297ZM-41.7598 -109.427V-107.506H531.964V-109.427V-111.348H-41.7598V-109.427ZM531.964 -109.427H530.044V464.297H531.964H533.885V-109.427H531.964ZM531.964 464.297V462.376H-41.7598V464.297V466.218H531.964V464.297ZM-41.7598 464.297H-39.8389V-109.427H-41.7598H-43.6807V464.297H-41.7598Z" fill="white" mask="url(#path-3-inside-2_567_3306)"/>
</g>
<defs>
<linearGradient id="paint0_linear_567_3306" x1="719.856" y1="0" x2="719.856" y2="422.537" gradientUnits="userSpaceOnUse">
<stop stop-color="#E53935"/>
<stop offset="1" stop-color="#C62828"/>
</linearGradient>
</defs>
</svg>
